<?xml version="1.0" standalone="no"?>
<!DOCTYPE svg PUBLIC "-//W3C//DTD SVG 20010904//EN"
 "http://www.w3.org/TR/2001/REC-SVG-20010904/DTD/svg10.dtd">
<svg version="1.0" xmlns="http://www.w3.org/2000/svg"
 width="128.000000pt" height="128.000000pt" viewBox="0 0 128.000000 128.000000"
 preserveAspectRatio="xMidYMid meet">
<metadata>
Created by potrace 1.14, written by Peter Selinger 2001-2017
</metadata>
<g transform="translate(0.000000,128.000000) scale(0.100000,-0.100000)"
fill="#000000" stroke="none">
<path d="M503 1227 c-29 -29 -53 -62 -53 -72 -1 -29 -47 -60 -65 -45 -8 7 -15
17 -15 22 0 15 -27 38 -45 38 -28 0 -55 -20 -55 -40 0 -11 -5 -20 -11 -20 -5
0 -7 -4 -4 -10 3 -5 1 -10 -5 -10 -12 0 -11 -21 4 -127 5 -36 -8 -53 -20 -25
-4 9 -7 20 -6 23 3 14 -39 17 -45 3 -3 -8 -9 -11 -14 -8 -16 10 -13 -133 3
-153 6 -7 8 -13 4 -13 -3 0 12 -18 34 -39 34 -33 40 -44 34 -66 -4 -18 -1 -32
12 -46 12 -14 15 -22 7 -27 -6 -4 -9 -19 -6 -35 5 -24 10 -27 43 -27 27 0 40
-5 45 -17 13 -29 11 -87 -3 -111 -7 -12 -10 -27 -7 -32 3 -5 0 -12 -6 -15 -5
-4 -8 -13 -5 -21 3 -8 -1 -14 -9 -14 -8 0 -17 -11 -21 -25 -3 -14 -10 -25 -15
-25 -5 0 -9 -11 -9 -25 0 -14 -7 -28 -15 -31 -8 -4 -15 -15 -15 -25 0 -10 -3
-19 -8 -19 -4 0 -8 -14 -8 -30 -1 -16 2 -30 7 -30 5 0 9 -11 9 -25 0 -14 5
-25 11 -25 6 0 9 -6 6 -14 -5 -13 6 -23 27 -24 5 0 12 -6 16 -13 5 -6 32 -13
63 -14 47 -1 60 3 84 24 33 31 72 35 93 12 17 -20 75 -43 84 -34 3 4 6 1 6 -5
0 -7 15 -12 36 -12 19 0 33 4 30 9 -4 5 5 8 19 6 16 -1 25 3 25 12 0 8 4 12 9
9 12 -8 61 17 61 32 0 6 4 12 9 12 4 0 6 11 3 25 -2 15 0 25 7 25 7 0 11 24
11 65 0 65 0 65 28 65 37 0 80 43 63 63 -9 11 -8 17 2 26 8 6 17 8 21 3 4 -4
12 1 17 11 6 9 14 15 20 12 5 -4 9 -3 9 2 0 4 14 14 30 21 17 8 33 24 36 38 3
13 10 24 15 24 5 0 8 3 7 8 -1 7 1 14 19 60 13 34 10 97 -7 112 -8 8 -15 22
-15 30 1 8 -5 23 -13 33 -8 9 -11 17 -7 17 4 0 -2 9 -14 19 -12 11 -22 22 -21
25 3 13 -13 72 -23 84 -13 16 -3 25 31 27 15 1 42 9 61 18 18 9 37 15 41 12 9
-5 40 60 40 84 0 21 -19 31 -57 31 -30 0 -29 29 3 45 59 30 86 83 61 123 -9
13 -65 13 -73 0 -3 -4 -17 -8 -31 -8 -14 0 -40 -7 -58 -16 -35 -16 -69 -16
-69 1 0 18 -24 35 -50 35 -29 0 -66 -31 -66 -55 0 -8 -5 -15 -10 -15 -6 0 -15
-12 -20 -26 -6 -14 -14 -23 -19 -19 -5 3 -12 1 -16 -5 -10 -17 -68 -11 -92 9
-28 23 -29 43 -5 78 41 63 8 113 -75 113 -45 0 -52 -4 -100 -53z"/>
</g>
</svg>
